<svg xmlns="http://www.w3.org/2000/svg" viewBox="0 0 192 192" width="192" height="192">
  <defs>
    <linearGradient id="sg" x1="0" y1="0" x2="1" y2="1">
      <stop offset="0%" stop-color="#545e6b"/>
      <stop offset="50%" stop-color="#3a4250"/>
      <stop offset="100%" stop-color="#5a8c3c"/>
    </linearGradient>
    <linearGradient id="cg" x1="0" y1="0" x2="1" y2="1">
      <stop offset="0%" stop-color="#8cc63f"/>
      <stop offset="100%" stop-color="#5a9a20"/>
    </linearGradient>
  </defs>
  <!-- Outer dark shield shape -->
  <path d="M88 16 L144 40 Q152 44 152 52 L152 100 Q152 132 120 156 L96 172 L72 156 Q40 132 40 100 L40 52 Q40 44 48 40 Z" fill="url(#sg)"/>
  <!-- White inner shield -->
  <path d="M88 34 L132 52 Q138 55 138 61 L138 98 Q138 124 112 144 L96 155 L80 144 Q54 124 54 98 L54 61 Q54 55 60 52 Z" fill="white"/>
  <!-- Green checkmark -->
  <path d="M72 95 L88 111 L120 75" stroke="url(#cg)" stroke-width="14" stroke-linecap="round" stroke-linejoin="round" fill="none"/>
  <!-- Arrow pointing right -->
  <path d="M138 96 L168 96 M158 84 L170 96 L158 108" stroke="#4a5568" stroke-width="9" stroke-linecap="round" stroke-linejoin="round" fill="none"/>
</svg>
